<mxfile host="app.diagrams.net" modified="2022-03-08T07:39:09.544Z" agent="5.0 (Windows)" etag="f5qzTflyS9KanKiQnWpR" version="16.5.6" type="github">
  <diagram id="cbPLOwQLAhEIxyICOQtN" name="Page-1">
    <mxGraphModel dx="312" dy="456" grid="1" gridSize="10" guides="1" tooltips="1" connect="1" arrows="1" fold="1" page="1" pageScale="1" pageWidth="827" pageHeight="1169" math="0" shadow="0">
      <root>
        <mxCell id="0" />
        <mxCell id="1" parent="0" />
        <mxCell id="SgAXbenAV0-4lwXJKQor-26" value="" style="edgeStyle=orthogonalEdgeStyle;rounded=0;orthogonalLoop=1;jettySize=auto;html=1;entryX=0;entryY=0.5;entryDx=0;entryDy=0;" edge="1" parent="1" source="SgAXbenAV0-4lwXJKQor-1" target="SgAXbenAV0-4lwXJKQor-24">
          <mxGeometry relative="1" as="geometry" />
        </mxCell>
        <mxCell id="SgAXbenAV0-4lwXJKQor-1" value="aes_128" style="rounded=0;whiteSpace=wrap;html=1;fillColor=#f8cecc;strokeColor=#b85450;" vertex="1" parent="1">
          <mxGeometry x="400" y="460" width="80" height="80" as="geometry" />
        </mxCell>
        <mxCell id="SgAXbenAV0-4lwXJKQor-4" value="" style="edgeStyle=orthogonalEdgeStyle;rounded=0;orthogonalLoop=1;jettySize=auto;html=1;entryX=0.014;entryY=0.328;entryDx=0;entryDy=0;entryPerimeter=0;" edge="1" parent="1" source="SgAXbenAV0-4lwXJKQor-2" target="SgAXbenAV0-4lwXJKQor-1">
          <mxGeometry relative="1" as="geometry">
            <mxPoint x="380" y="480" as="targetPoint" />
          </mxGeometry>
        </mxCell>
        <mxCell id="SgAXbenAV0-4lwXJKQor-6" value="&lt;div&gt;key&lt;/div&gt;&lt;div&gt;[127:0]&lt;/div&gt;" style="edgeLabel;html=1;align=center;verticalAlign=middle;resizable=0;points=[];" vertex="1" connectable="0" parent="SgAXbenAV0-4lwXJKQor-4">
          <mxGeometry x="-0.5277" y="2" relative="1" as="geometry">
            <mxPoint x="-78" y="-18" as="offset" />
          </mxGeometry>
        </mxCell>
        <mxCell id="SgAXbenAV0-4lwXJKQor-2" value="" style="rounded=0;whiteSpace=wrap;html=1;fillColor=#f5f5f5;fontColor=#333333;strokeColor=#666666;" vertex="1" parent="1">
          <mxGeometry x="330" y="420" width="30" height="60" as="geometry" />
        </mxCell>
        <mxCell id="SgAXbenAV0-4lwXJKQor-5" value="" style="edgeStyle=orthogonalEdgeStyle;rounded=0;orthogonalLoop=1;jettySize=auto;html=1;" edge="1" parent="1" source="SgAXbenAV0-4lwXJKQor-3" target="SgAXbenAV0-4lwXJKQor-1">
          <mxGeometry relative="1" as="geometry" />
        </mxCell>
        <mxCell id="SgAXbenAV0-4lwXJKQor-7" value="&lt;div&gt;word&lt;/div&gt;&lt;div&gt;&amp;nbsp;[127:0]&lt;/div&gt;" style="edgeLabel;html=1;align=center;verticalAlign=middle;resizable=0;points=[];" vertex="1" connectable="0" parent="SgAXbenAV0-4lwXJKQor-5">
          <mxGeometry x="-0.3429" y="1" relative="1" as="geometry">
            <mxPoint x="-79" y="23" as="offset" />
          </mxGeometry>
        </mxCell>
        <mxCell id="SgAXbenAV0-4lwXJKQor-3" value="" style="rounded=0;whiteSpace=wrap;html=1;fillColor=#f5f5f5;fontColor=#333333;strokeColor=#666666;" vertex="1" parent="1">
          <mxGeometry x="330" y="500" width="30" height="60" as="geometry" />
        </mxCell>
        <mxCell id="SgAXbenAV0-4lwXJKQor-13" value="" style="edgeStyle=orthogonalEdgeStyle;rounded=0;orthogonalLoop=1;jettySize=auto;html=1;entryX=0;entryY=0.5;entryDx=0;entryDy=0;" edge="1" parent="1" source="SgAXbenAV0-4lwXJKQor-8" target="SgAXbenAV0-4lwXJKQor-2">
          <mxGeometry relative="1" as="geometry" />
        </mxCell>
        <mxCell id="SgAXbenAV0-4lwXJKQor-8" value="byte_stacker key" style="rounded=0;whiteSpace=wrap;html=1;fillColor=#fff2cc;strokeColor=#d6b656;" vertex="1" parent="1">
          <mxGeometry x="180" y="420" width="90" height="60" as="geometry" />
        </mxCell>
        <mxCell id="SgAXbenAV0-4lwXJKQor-14" value="" style="edgeStyle=orthogonalEdgeStyle;rounded=0;orthogonalLoop=1;jettySize=auto;html=1;entryX=0;entryY=0.5;entryDx=0;entryDy=0;" edge="1" parent="1" source="SgAXbenAV0-4lwXJKQor-9" target="SgAXbenAV0-4lwXJKQor-3">
          <mxGeometry relative="1" as="geometry" />
        </mxCell>
        <mxCell id="SgAXbenAV0-4lwXJKQor-9" value="byte_stacker word" style="rounded=0;whiteSpace=wrap;html=1;fillColor=#fff2cc;strokeColor=#d6b656;" vertex="1" parent="1">
          <mxGeometry x="180" y="500" width="90" height="60" as="geometry" />
        </mxCell>
        <mxCell id="SgAXbenAV0-4lwXJKQor-10" value="" style="triangle;whiteSpace=wrap;html=1;direction=north;" vertex="1" parent="1">
          <mxGeometry x="337.5" y="550" width="15" height="10" as="geometry" />
        </mxCell>
        <mxCell id="SgAXbenAV0-4lwXJKQor-11" value="" style="triangle;whiteSpace=wrap;html=1;direction=north;" vertex="1" parent="1">
          <mxGeometry x="337.5" y="470" width="15" height="10" as="geometry" />
        </mxCell>
        <mxCell id="SgAXbenAV0-4lwXJKQor-18" value="" style="edgeStyle=orthogonalEdgeStyle;rounded=0;orthogonalLoop=1;jettySize=auto;html=1;" edge="1" parent="1" source="SgAXbenAV0-4lwXJKQor-16" target="SgAXbenAV0-4lwXJKQor-8">
          <mxGeometry relative="1" as="geometry" />
        </mxCell>
        <mxCell id="SgAXbenAV0-4lwXJKQor-16" value="key_i" style="triangle;whiteSpace=wrap;html=1;fillColor=#dae8fc;strokeColor=#6c8ebf;" vertex="1" parent="1">
          <mxGeometry x="60" y="420" width="60" height="60" as="geometry" />
        </mxCell>
        <mxCell id="SgAXbenAV0-4lwXJKQor-19" value="" style="edgeStyle=orthogonalEdgeStyle;rounded=0;orthogonalLoop=1;jettySize=auto;html=1;" edge="1" parent="1" source="SgAXbenAV0-4lwXJKQor-17" target="SgAXbenAV0-4lwXJKQor-9">
          <mxGeometry relative="1" as="geometry" />
        </mxCell>
        <mxCell id="SgAXbenAV0-4lwXJKQor-17" value="word_i" style="triangle;whiteSpace=wrap;html=1;fillColor=#dae8fc;strokeColor=#6c8ebf;" vertex="1" parent="1">
          <mxGeometry x="60" y="500" width="60" height="60" as="geometry" />
        </mxCell>
        <mxCell id="SgAXbenAV0-4lwXJKQor-20" value="key [31:0]" style="text;html=1;align=center;verticalAlign=middle;resizable=0;points=[];autosize=1;strokeColor=none;fillColor=none;" vertex="1" parent="1">
          <mxGeometry x="110" y="430" width="70" height="20" as="geometry" />
        </mxCell>
        <mxCell id="SgAXbenAV0-4lwXJKQor-23" value="word[31:0]" style="text;html=1;align=center;verticalAlign=middle;resizable=0;points=[];autosize=1;strokeColor=none;fillColor=none;" vertex="1" parent="1">
          <mxGeometry x="110" y="510" width="70" height="20" as="geometry" />
        </mxCell>
        <mxCell id="SgAXbenAV0-4lwXJKQor-29" value="" style="edgeStyle=orthogonalEdgeStyle;rounded=0;orthogonalLoop=1;jettySize=auto;html=1;" edge="1" parent="1" source="SgAXbenAV0-4lwXJKQor-24" target="SgAXbenAV0-4lwXJKQor-28">
          <mxGeometry relative="1" as="geometry" />
        </mxCell>
        <mxCell id="SgAXbenAV0-4lwXJKQor-24" value="" style="rounded=0;whiteSpace=wrap;html=1;fillColor=#f5f5f5;fontColor=#333333;strokeColor=#666666;" vertex="1" parent="1">
          <mxGeometry x="537.5" y="470" width="30" height="60" as="geometry" />
        </mxCell>
        <mxCell id="SgAXbenAV0-4lwXJKQor-25" value="" style="triangle;whiteSpace=wrap;html=1;direction=north;" vertex="1" parent="1">
          <mxGeometry x="545" y="520" width="15" height="10" as="geometry" />
        </mxCell>
        <mxCell id="SgAXbenAV0-4lwXJKQor-27" value="&lt;div&gt;out&lt;/div&gt;&lt;div&gt;[127:0]&lt;/div&gt;" style="text;html=1;align=center;verticalAlign=middle;resizable=0;points=[];autosize=1;strokeColor=none;fillColor=none;" vertex="1" parent="1">
          <mxGeometry x="480" y="470" width="50" height="30" as="geometry" />
        </mxCell>
        <mxCell id="SgAXbenAV0-4lwXJKQor-31" value="" style="edgeStyle=orthogonalEdgeStyle;rounded=0;orthogonalLoop=1;jettySize=auto;html=1;" edge="1" parent="1" source="SgAXbenAV0-4lwXJKQor-28" target="SgAXbenAV0-4lwXJKQor-30">
          <mxGeometry relative="1" as="geometry" />
        </mxCell>
        <mxCell id="SgAXbenAV0-4lwXJKQor-28" value="byte_unstacker out" style="rounded=0;whiteSpace=wrap;html=1;fillColor=#fff2cc;strokeColor=#d6b656;" vertex="1" parent="1">
          <mxGeometry x="590" y="470" width="90" height="60" as="geometry" />
        </mxCell>
        <mxCell id="SgAXbenAV0-4lwXJKQor-30" value="out" style="triangle;whiteSpace=wrap;html=1;fillColor=#dae8fc;strokeColor=#6c8ebf;" vertex="1" parent="1">
          <mxGeometry x="740" y="470" width="60" height="60" as="geometry" />
        </mxCell>
        <mxCell id="SgAXbenAV0-4lwXJKQor-32" value="out[31:0]" style="text;html=1;align=center;verticalAlign=middle;resizable=0;points=[];autosize=1;strokeColor=none;fillColor=none;" vertex="1" parent="1">
          <mxGeometry x="680" y="480" width="60" height="20" as="geometry" />
        </mxCell>
        <mxCell id="SgAXbenAV0-4lwXJKQor-37" value="" style="edgeStyle=orthogonalEdgeStyle;rounded=0;orthogonalLoop=1;jettySize=auto;html=1;" edge="1" parent="1" source="SgAXbenAV0-4lwXJKQor-35" target="SgAXbenAV0-4lwXJKQor-1">
          <mxGeometry relative="1" as="geometry" />
        </mxCell>
        <mxCell id="SgAXbenAV0-4lwXJKQor-35" value="FSM" style="rounded=0;whiteSpace=wrap;html=1;fillColor=#d5e8d4;strokeColor=#82b366;" vertex="1" parent="1">
          <mxGeometry x="400" y="340" width="80" height="40" as="geometry" />
        </mxCell>
        <mxCell id="SgAXbenAV0-4lwXJKQor-36" value="" style="endArrow=classic;html=1;rounded=0;entryX=0.5;entryY=0;entryDx=0;entryDy=0;exitX=0.75;exitY=1;exitDx=0;exitDy=0;edgeStyle=orthogonalEdgeStyle;" edge="1" parent="1" source="SgAXbenAV0-4lwXJKQor-35" target="SgAXbenAV0-4lwXJKQor-30">
          <mxGeometry width="50" height="50" relative="1" as="geometry">
            <mxPoint x="650" y="430" as="sourcePoint" />
            <mxPoint x="700" y="380" as="targetPoint" />
            <Array as="points">
              <mxPoint x="460" y="400" />
              <mxPoint x="770" y="400" />
            </Array>
          </mxGeometry>
        </mxCell>
        <mxCell id="SgAXbenAV0-4lwXJKQor-38" value="" style="endArrow=classic;html=1;rounded=0;exitX=0.25;exitY=1;exitDx=0;exitDy=0;entryX=0.5;entryY=0;entryDx=0;entryDy=0;edgeStyle=orthogonalEdgeStyle;" edge="1" parent="1" source="SgAXbenAV0-4lwXJKQor-35" target="SgAXbenAV0-4lwXJKQor-16">
          <mxGeometry width="50" height="50" relative="1" as="geometry">
            <mxPoint x="190" y="360" as="sourcePoint" />
            <mxPoint x="240" y="310" as="targetPoint" />
            <Array as="points">
              <mxPoint x="420" y="400" />
              <mxPoint x="90" y="400" />
            </Array>
          </mxGeometry>
        </mxCell>
        <mxCell id="SgAXbenAV0-4lwXJKQor-39" value="" style="endArrow=classic;html=1;rounded=0;entryX=0.5;entryY=0;entryDx=0;entryDy=0;edgeStyle=orthogonalEdgeStyle;" edge="1" parent="1" target="SgAXbenAV0-4lwXJKQor-17">
          <mxGeometry width="50" height="50" relative="1" as="geometry">
            <mxPoint x="40" y="490" as="sourcePoint" />
            <mxPoint x="220" y="270" as="targetPoint" />
          </mxGeometry>
        </mxCell>
        <mxCell id="SgAXbenAV0-4lwXJKQor-40" value="" style="endArrow=none;html=1;rounded=0;" edge="1" parent="1">
          <mxGeometry width="50" height="50" relative="1" as="geometry">
            <mxPoint x="40" y="490" as="sourcePoint" />
            <mxPoint x="40" y="400" as="targetPoint" />
          </mxGeometry>
        </mxCell>
        <mxCell id="SgAXbenAV0-4lwXJKQor-41" value="" style="endArrow=none;html=1;rounded=0;" edge="1" parent="1">
          <mxGeometry width="50" height="50" relative="1" as="geometry">
            <mxPoint x="40" y="400" as="sourcePoint" />
            <mxPoint x="90" y="400" as="targetPoint" />
          </mxGeometry>
        </mxCell>
      </root>
    </mxGraphModel>
  </diagram>
</mxfile>
